<svg width="20" height="16" viewBox="0 0 20 16" fill="none" xmlns="http://www.w3.org/2000/svg">
<path d="M0.0625 2.07333C0.188523 1.48432 0.498319 0.958417 0.941152 0.581744C1.38398 0.205072 1.93361 -4.06592e-05 2.5 6.04552e-09H17.5C18.0664 -4.06592e-05 18.616 0.205072 19.0588 0.581744C19.5017 0.958417 19.8115 1.48432 19.9375 2.07333L10 8.552L0.0625 2.07333ZM0 3.596V13.068L7.25375 8.324L0 3.596ZM8.45125 9.10667L0.23875 14.476C0.441658 14.9324 0.761908 15.3179 1.16223 15.5877C1.56255 15.8575 2.02647 16.0005 2.5 16H17.5C17.9735 16.0001 18.4372 15.8568 18.8373 15.5868C19.2374 15.3168 19.5574 14.9311 19.76 14.4747L11.5475 9.10533L10 10.1147L8.45125 9.10667ZM12.7462 8.32533L20 13.068V3.596L12.7462 8.32533Z" fill="#873003"/>
</svg>
