<svg width="80" height="80" viewBox="0 0 80 80" fill="none" xmlns="http://www.w3.org/2000/svg">
<path fill-rule="evenodd" clip-rule="evenodd" d="M40 0C36.55 0 30.785 1.325 25.36 2.8C19.81 4.3 14.215 6.075 10.925 7.15C9.54945 7.60426 8.32995 8.43733 7.40658 9.55351C6.48321 10.6697 5.89343 12.0237 5.705 13.46C2.725 35.845 9.64 52.435 18.03 63.41C21.5892 68.1037 25.8313 72.2378 30.615 75.675C32.545 77.04 34.335 78.085 35.855 78.8C37.255 79.46 38.76 80 40 80C41.24 80 42.74 79.46 44.145 78.8C45.9793 77.9128 47.7326 76.8672 49.385 75.675C54.1687 72.2378 58.4108 68.1037 61.97 63.41C70.36 52.435 77.275 35.845 74.295 13.46C74.1074 12.0228 73.5181 10.6677 72.5946 9.55059C71.6712 8.43345 70.4512 7.59963 69.075 7.145C64.2987 5.58005 59.4857 4.12963 54.64 2.795C49.215 1.33 43.45 0 40 0ZM50.73 25.73C51.1994 25.2606 51.8361 24.9968 52.5 24.9968C53.1639 24.9968 53.8006 25.2606 54.27 25.73C54.7394 26.1994 55.0032 26.8361 55.0032 27.5C55.0032 28.1639 54.7394 28.8006 54.27 29.27L39.27 44.27C39.0378 44.5028 38.7619 44.6875 38.4582 44.8136C38.1544 44.9396 37.8288 45.0045 37.5 45.0045C37.1712 45.0045 36.8456 44.9396 36.5418 44.8136C36.2381 44.6875 35.9622 44.5028 35.73 44.27L28.23 36.77C27.9976 36.5376 27.8132 36.2616 27.6874 35.9579C27.5616 35.6542 27.4968 35.3287 27.4968 35C27.4968 34.6713 27.5616 34.3458 27.6874 34.0421C27.8132 33.7384 27.9976 33.4624 28.23 33.23C28.4624 32.9976 28.7384 32.8132 29.0421 32.6874C29.3458 32.5616 29.6713 32.4968 30 32.4968C30.3287 32.4968 30.6542 32.5616 30.9579 32.6874C31.2616 32.8132 31.5376 32.9976 31.77 33.23L37.5 38.965L50.73 25.73Z" fill="#873003"/>
</svg>
