<svg width="80" height="80" viewBox="0 0 80 80" fill="none" xmlns="http://www.w3.org/2000/svg">
<path d="M17.5 17.5C14.43 13.08 17.13 7.69 21.79 5L40 36.13L58.21 5C62.87 7.69 65.57 13.08 62.5 17.5L44.05 43.05L51.83 56.355C54.5868 54.9509 57.7663 54.6189 60.7536 55.4233C63.7409 56.2278 66.3238 58.1114 68.0027 60.71C69.6816 63.3086 70.3371 66.4375 69.8426 69.4914C69.3481 72.5454 67.7386 75.3075 65.3255 77.2434C62.9124 79.1794 59.867 80.1517 56.7785 79.9723C53.69 79.7929 50.7777 78.4746 48.6049 76.2722C46.4322 74.0698 45.1533 71.14 45.0157 68.0493C44.8781 64.9586 45.8916 61.9267 47.86 59.54L40 48.65L32.14 59.535C34.1085 61.9217 35.1219 64.9536 34.9843 68.0443C34.8467 71.135 33.5679 74.0648 31.3951 76.2672C29.2224 78.4696 26.3101 79.7879 23.2215 79.9673C20.133 80.1467 17.0877 79.1744 14.6745 77.2384C12.2614 75.3025 10.6519 72.5404 10.1574 69.4864C9.66288 66.4324 10.3185 63.3036 11.9973 60.705C13.6762 58.1064 16.2591 56.2228 19.2464 55.4183C22.2338 54.6139 25.4133 54.9459 28.17 56.35L35.95 43.05L17.5 17.5ZM30 67.5C30 65.5109 29.2098 63.6032 27.8033 62.1967C26.3968 60.7902 24.4891 60 22.5 60C20.5109 60 18.6032 60.7902 17.1967 62.1967C15.7902 63.6032 15 65.5109 15 67.5C15 69.4891 15.7902 71.3968 17.1967 72.8033C18.6032 74.2098 20.5109 75 22.5 75C24.4891 75 26.3968 74.2098 27.8033 72.8033C29.2098 71.3968 30 69.4891 30 67.5ZM65 67.5C65 65.5109 64.2098 63.6032 62.8033 62.1967C61.3968 60.7902 59.4891 60 57.5 60C55.5109 60 53.6032 60.7902 52.1967 62.1967C50.7902 63.6032 50 65.5109 50 67.5C50 69.4891 50.7902 71.3968 52.1967 72.8033C53.6032 74.2098 55.5109 75 57.5 75C59.4891 75 61.3968 74.2098 62.8033 72.8033C64.2098 71.3968 65 69.4891 65 67.5Z" fill="#873003"/>
</svg>
