<svg width="19" height="19" viewBox="0 0 19 19" fill="none" xmlns="http://www.w3.org/2000/svg">
<g clip-path="url(#clip0_1_13)">
<path fill-rule="evenodd" clip-rule="evenodd" d="M6.23444 1.00929C6.44159 0.905248 6.66849 0.846416 6.90009 0.836695C7.1317 0.826974 7.36273 0.866585 7.57787 0.952905C7.79301 1.03922 7.98735 1.17028 8.14801 1.33739C8.30867 1.5045 8.43198 1.70384 8.50977 1.92221L9.42919 4.50295C9.59761 4.97627 9.53877 5.50086 9.27008 5.9255L8.1389 7.714C8.08053 7.80671 8.04704 7.91291 8.04166 8.02234C8.03628 8.13177 8.05919 8.24073 8.10819 8.33873L9.57247 11.2486C9.62201 11.3465 9.69598 11.43 9.78724 11.491C9.87849 11.5519 9.98393 11.5883 10.0934 11.5965L12.2028 11.7536C12.45 11.7723 12.6898 11.8468 12.9041 11.9715C13.1184 12.0962 13.3016 12.2678 13.44 12.4735L14.9649 14.7488C15.5131 15.5668 15.2204 16.6796 14.3419 17.1209L13.1173 17.7372C12.2409 18.1782 11.1608 18.1421 10.3498 17.5157C8.27328 15.9137 6.58483 13.8639 5.41021 11.519C4.22706 9.17866 3.58701 6.6016 3.5377 3.97966C3.51847 2.95631 4.13343 2.06653 5.00984 1.62552L6.23444 1.00929Z" fill="#873003"/>
</g>
<defs>
<clipPath id="clip0_1_13">
<rect width="15" height="15" fill="white" transform="translate(4.70697) rotate(18.2882)"/>
</clipPath>
</defs>
</svg>
